# xmcd
#
# Track frame offsets:
#	150
#	22877
#	46028
#	72704
#	98580
#	123193
#	147038
#	168768
#	196858
#	225843
#	248923
#	271134
#
# Disc length: 3852 seconds
#
# Revision: 1
# Processed by: cddbd v1.5.2PL0 Copyright (c) Steve Scherf et al.
# Submitted via: EZCDAudioConverter 8.0.2.1
#
DISCID=8c0f0a0c
DTITLE=Giang Tử - Qua Ngõ Nhà Em
DYEAR=2008
DGENRE=Traditional Country
TTITLE0=Giang Tử - Chuyến tàu về quê ngoại
TTITLE1=Giang Tử - Về từ nghìn trùng
TTITLE2=Giang Tử - Mưa đêm tỉnh nhỏ
TTITLE3=Giang Tử, Phương Dung - Chuyện tình thứ nhất
TTITLE4=Giang Tử - Người hàng xóm
TTITLE5=Giang Tử, Phương Dung - Ngoéo tay nhau thề
TTITLE6=Giang Tử - Như đập vỡ tim
TTITLE7=Giang Tử - Chuyện 3 người
TTITLE8=Giang Tử - Qua Ngõ Nhà Em
TTITLE9=Giang Tử - Tạm biệt em yêu
TTITLE10=Giang Tử - Mật đắng tình yêu
TTITLE11=Giang Tử - Yêu người như thế đó
EXTD=
EXTT0=
EXTT1=
EXTT2=
EXTT3=
EXTT4=
EXTT5=
EXTT6=
EXTT7=
EXTT8=
EXTT9=
EXTT10=
EXTT11=
PLAYORDER=
